<mxfile host="Electron" agent="Mozilla/5.0 (Windows NT 10.0; Win64; x64) AppleWebKit/537.36 (KHTML, like Gecko) draw.io/25.0.2 Chrome/128.0.6613.186 Electron/32.2.5 Safari/537.36" version="25.0.2">
  <diagram name="第 1 页" id="qIvX3sak-EunhOmALNiu">
    <mxGraphModel dx="1084" dy="522" grid="1" gridSize="10" guides="1" tooltips="1" connect="1" arrows="1" fold="1" page="1" pageScale="1" pageWidth="827" pageHeight="1169" math="0" shadow="0">
      <root>
        <mxCell id="0" />
        <mxCell id="1" parent="0" />
        <mxCell id="wqa8pw58EzON19-UQ0fu-7" style="edgeStyle=orthogonalEdgeStyle;rounded=0;orthogonalLoop=1;jettySize=auto;html=1;exitX=1;exitY=0.5;exitDx=0;exitDy=0;entryX=0;entryY=0.5;entryDx=0;entryDy=0;" edge="1" parent="1" source="wqa8pw58EzON19-UQ0fu-1" target="wqa8pw58EzON19-UQ0fu-4">
          <mxGeometry relative="1" as="geometry" />
        </mxCell>
        <mxCell id="wqa8pw58EzON19-UQ0fu-1" value="Card 1&lt;div&gt;1 byte&lt;/div&gt;" style="rounded=1;whiteSpace=wrap;html=1;" vertex="1" parent="1">
          <mxGeometry x="230" y="150" width="120" height="60" as="geometry" />
        </mxCell>
        <mxCell id="wqa8pw58EzON19-UQ0fu-8" style="edgeStyle=orthogonalEdgeStyle;rounded=0;orthogonalLoop=1;jettySize=auto;html=1;exitX=1;exitY=0.5;exitDx=0;exitDy=0;entryX=0;entryY=0.5;entryDx=0;entryDy=0;" edge="1" parent="1" source="wqa8pw58EzON19-UQ0fu-2" target="wqa8pw58EzON19-UQ0fu-5">
          <mxGeometry relative="1" as="geometry" />
        </mxCell>
        <mxCell id="wqa8pw58EzON19-UQ0fu-2" value="Card 2" style="rounded=1;whiteSpace=wrap;html=1;" vertex="1" parent="1">
          <mxGeometry x="230" y="250" width="120" height="60" as="geometry" />
        </mxCell>
        <mxCell id="wqa8pw58EzON19-UQ0fu-9" style="edgeStyle=orthogonalEdgeStyle;rounded=0;orthogonalLoop=1;jettySize=auto;html=1;exitX=1;exitY=0.5;exitDx=0;exitDy=0;entryX=0;entryY=0.5;entryDx=0;entryDy=0;" edge="1" parent="1" source="wqa8pw58EzON19-UQ0fu-3" target="wqa8pw58EzON19-UQ0fu-6">
          <mxGeometry relative="1" as="geometry" />
        </mxCell>
        <mxCell id="wqa8pw58EzON19-UQ0fu-3" value="Card 3" style="rounded=1;whiteSpace=wrap;html=1;" vertex="1" parent="1">
          <mxGeometry x="230" y="350" width="120" height="60" as="geometry" />
        </mxCell>
        <mxCell id="wqa8pw58EzON19-UQ0fu-4" value="Page 0x0000&lt;div&gt;512 bytes&lt;/div&gt;" style="rounded=1;whiteSpace=wrap;html=1;" vertex="1" parent="1">
          <mxGeometry x="480" y="150" width="120" height="60" as="geometry" />
        </mxCell>
        <mxCell id="wqa8pw58EzON19-UQ0fu-5" value="Page 0x0200" style="rounded=1;whiteSpace=wrap;html=1;" vertex="1" parent="1">
          <mxGeometry x="480" y="250" width="120" height="60" as="geometry" />
        </mxCell>
        <mxCell id="wqa8pw58EzON19-UQ0fu-6" value="Page 0x0400" style="rounded=1;whiteSpace=wrap;html=1;" vertex="1" parent="1">
          <mxGeometry x="480" y="350" width="120" height="60" as="geometry" />
        </mxCell>
        <mxCell id="wqa8pw58EzON19-UQ0fu-10" value="&lt;font style=&quot;font-size: 18px;&quot;&gt;Dirty?&lt;/font&gt;" style="text;html=1;align=center;verticalAlign=middle;whiteSpace=wrap;rounded=0;" vertex="1" parent="1">
          <mxGeometry x="384" y="150" width="60" height="30" as="geometry" />
        </mxCell>
        <mxCell id="wqa8pw58EzON19-UQ0fu-11" value="Card Page" style="text;strokeColor=none;fillColor=none;html=1;fontSize=24;fontStyle=1;verticalAlign=middle;align=center;" vertex="1" parent="1">
          <mxGeometry x="475" y="110" width="130" height="40" as="geometry" />
        </mxCell>
        <mxCell id="wqa8pw58EzON19-UQ0fu-12" value="Card Table" style="text;strokeColor=none;fillColor=none;html=1;fontSize=24;fontStyle=1;verticalAlign=middle;align=center;" vertex="1" parent="1">
          <mxGeometry x="225" y="110" width="130" height="40" as="geometry" />
        </mxCell>
      </root>
    </mxGraphModel>
  </diagram>
</mxfile>
